<svg xmlns="http://www.w3.org/2000/svg" xmlns:xlink="http://www.w3.org/1999/xlink" width="308" height="308" viewBox="0 0 308 308"><defs><clipPath id="a"><rect width="308" height="308" transform="translate(-11001 -15251)" fill="none" stroke="#707070" stroke-width="1"/></clipPath></defs><g transform="translate(11001 15251)" clip-path="url(#a)"><g transform="translate(-11001 -15257.273)"><g transform="translate(97.219 0) rotate(77)" opacity="0.59"><g transform="translate(0 0)"><path d="M44.893,23.49s1.226-.365,1.826-.554c.52-.167,1.013-.348,1.506-.53C60.587,17.882,68.595,8.612,66.743.511A4.455,4.455,0,0,0,66.622,0L0,18.631s.333.1.969.273c1.912.532,6.59,1.771,12.36,2.944a8.519,8.519,0,0,0,1.064.225,130.354,130.354,0,0,0,14.581,2.17c.4.04.78.065,1.163.11C35.62,24.734,44.893,23.49,44.893,23.49Z" transform="translate(0 10.401)" fill="#50daaf"/><path d="M0,29.032,66.622,10.4a4.458,4.458,0,0,0-.161-.5C63.841,2.015,52.186-1.757,39.271.788c-.516.1-1.032.2-1.563.328-.611.149-1.222.3-1.848.473C31.843,2.713,27.287,5.337,22.8,8.507c-.3.238-.613.454-.937.7A130.308,130.308,0,0,0,10.52,18.624a8.5,8.5,0,0,0-.793.744c-4.324,4-7.681,7.481-9.04,8.928C.232,28.771,0,29.032,0,29.032Z" transform="translate(0)" fill="#57f6c4"/></g><g transform="translate(37.531 6.433)"><path d="M35.18,31.974c.319-.566.609-1.125.9-1.683.249-.485.47-.962.69-1.439C42.312,16.912,41.42,4.7,34.381.275A4.412,4.412,0,0,0,33.935,0L0,60.282s.308-.163.878-.492c1.728-.976,5.912-3.408,10.821-6.659a8.319,8.319,0,0,0,.912-.593,130.281,130.281,0,0,0,11.845-8.776c.313-.257.6-.506.9-.745C29.5,39.411,33.134,35.61,35.18,31.974Z" transform="translate(0.457 1.392)" fill="#50daaf"/><path d="M.106,61.674,34.041,1.392a4.321,4.321,0,0,0-.467-.239C26.145-2.572,15.236,3,7.9,13.934c-.293.436-.587.872-.873,1.337-.327.538-.654,1.075-.972,1.642-2.046,3.635-3.413,8.711-4.345,14.128-.047.383-.112.755-.169,1.156A130.343,130.343,0,0,0,.185,46.876,8.479,8.479,0,0,0,.15,47.963c-.233,5.883-.141,10.721-.08,12.7C.086,61.326.106,61.674.106,61.674Z" transform="translate(0.351 0)" fill="#57f6c4"/><g transform="translate(0 1.135)"><g transform="translate(0 0)"><g transform="translate(0 0)"><rect width="1.048" height="69.178" transform="matrix(0.871, 0.491, -0.491, 0.871, 33.935, 0)" fill="#41ae8c"/></g><g transform="translate(0.497 43.003)"><path d="M12.57,9.793,9.832,0,.039,2.738A8.481,8.481,0,0,0,0,3.826L9.112,1.279l2.547,9.108A8.319,8.319,0,0,0,12.57,9.793Z" fill="#41ae8c"/></g><g transform="translate(1.895 24.735)"><path d="M23.917,18.54l-5-17.826L18.717,0,18,.2.169,5.171C.123,5.554.057,5.926,0,6.327L17.283,1.479l.714-.2.2.713,4.82,17.292C23.33,19.027,23.614,18.778,23.917,18.54Z" fill="#41ae8c"/></g><g transform="translate(7.382 6.468)"><path d="M29.155,24.08c.249-.485.47-.962.69-1.439L23.513,0,.873,6.331C.579,6.767.286,7.2,0,7.668l22.08-6.19.714-.2.2.714Z" fill="#41ae8c"/></g></g></g></g></g><path d="M310.36,878.942H6.84a2.57,2.57,0,0,1-2.24-2.821h0A2.57,2.57,0,0,1,6.84,873.3H310.36a2.571,2.571,0,0,1,2.24,2.821h0A2.6,2.6,0,0,1,310.36,878.942Z" transform="translate(-3.926 -564.669)" fill="#74a2ca"/><path d="M9.514,31.227a9.513,9.513,0,1,1,3.768-18.25,4.484,4.484,0,0,1,4.365-3.464A9.513,9.513,0,0,1,33.682,2.589a2,2,0,0,1,3.443.652h.1a4.488,4.488,0,0,1,1.359.209,6.307,6.307,0,0,1,9.482,8.317,1.99,1.99,0,0,1,.395,1.192,1.921,1.921,0,0,1-.014.239,9.135,9.135,0,0,1-1.984,18.027H9.514Z" transform="translate(0 108.34)" fill="#bfe7ec"/><path d="M7.895,25.835a7.871,7.871,0,1,1,3.129-15.1A3.713,3.713,0,0,1,14.645,7.87,7.9,7.9,0,0,1,27.955,2.142a1.661,1.661,0,0,1,2.857.54h.08a3.78,3.78,0,0,1,1.129.173,5.227,5.227,0,0,1,7.869,6.881,1.651,1.651,0,0,1,.328.987c0,.067-.006.133-.012.2a7.554,7.554,0,0,1-1.648,14.913v0Z" transform="translate(261.946 7.023)" fill="#bfe7ec"/><path d="M7.895,25.835a7.871,7.871,0,1,1,3.129-15.1A3.713,3.713,0,0,1,14.645,7.87,7.9,7.9,0,0,1,27.955,2.142a1.661,1.661,0,0,1,2.857.54h.08a3.78,3.78,0,0,1,1.129.173,5.227,5.227,0,0,1,7.869,6.881,1.651,1.651,0,0,1,.328.987c0,.067-.006.133-.012.2a7.554,7.554,0,0,1-1.648,14.913v0Z" transform="translate(241.616 87.424)" fill="#bfe7ec"/><path d="M5.471,17.747a5.407,5.407,0,1,1,0-10.812,5.5,5.5,0,0,1,2.166.441,2.572,2.572,0,0,1,2.51-1.97,5.483,5.483,0,0,1,9.219-3.935,1.156,1.156,0,0,1,1.98.372.512.512,0,0,1,.055,0,2.636,2.636,0,0,1,.783.119,3.634,3.634,0,0,1,6.311,2.408,3.543,3.543,0,0,1-.861,2.318,1.124,1.124,0,0,1,.229.678c0,.046-.006.092-.01.136a5.186,5.186,0,0,1-1.141,10.246H5.471Z" transform="translate(0.674 15.11)" fill="#bfe7ec"/><g transform="translate(199.161 6.274)" opacity="0.74"><path d="M40.1,24.1S51.582,3.739,43.1.512C34.263-2.846,33.526,11.147,33.316,18c-.448,14.622,1.213,17.481,2.91,14.042L40.1,24.1M13.516,62.969S7.19,47.454,1.956,49.886c-5.448,2.532,1.836,9.8,5.466,13.283,7.743,7.438,9.976,8.062,8.808,5.557l-2.713-5.757m4.93-8.013S10.51,40.2,5.563,43.173c-5.148,3.1,2.865,9.546,6.844,12.627,8.489,6.575,10.775,6.958,9.349,4.592l-3.309-5.436m5.1-10.649s-8.9-17.691-14.842-14.338C2.524,33.46,11.784,41.34,16.386,45.11c9.819,8.043,12.508,8.571,10.9,5.728L23.55,44.306m5.714-8.648s-5.207-19.109-11.7-17c-6.754,2.192.755,11.757,4.516,16.366,8.024,9.835,10.554,10.886,9.543,7.781l-2.362-7.144m-4,33.55s15.085,3.155,15.922-2.088c.871-5.456-8.415-3.638-12.94-2.663-9.655,2.081-11.279,3.461-8.769,3.859l5.787.892m7.084-11.174s15.085,3.155,15.922-2.088c.871-5.456-8.415-3.637-12.94-2.663-9.655,2.08-11.279,3.461-8.769,3.859l5.786.892M39.8,47.207s19.8.373,19.6-6.447c-.205-7.1-11.495-2.579-16.975-.265-11.693,4.936-13.413,7.069-10.148,6.97l7.52-.258m-4.81-7.857c-3.055,1.154-2.121-1.422,7.335-9.889C46.76,25.493,55.969,17.553,58.469,24.2c2.4,6.386-16.447,12.464-16.447,12.464L34.994,39.35" transform="translate(0 0)" fill="#50daaf"/><g transform="translate(7.112 8.015)"><path d="M32.843.43s-.978,7.035-2.6,15.4c-.811,4.183-1.784,8.7-2.878,12.838a62.313,62.313,0,0,1-3.612,10.6C17.816,51.5,8.881,64.5.649,73.021A.378.378,0,1,1,.106,72.5C8.265,64.053,17.177,51.09,23.071,38.933a61.647,61.647,0,0,0,3.562-10.46c1.631-6.174,3-13.214,3.955-18.708.479-2.747.855-5.108,1.112-6.781.129-.836.227-1.5.294-1.957s.1-.7.1-.7a.378.378,0,1,1,.748.1Z" transform="translate(0 0)" fill="#74b4a0"/><path d="M.156,12.438,17.224.072a.378.378,0,0,1,.443.612L.6,13.049a.378.378,0,1,1-.444-.611" transform="translate(25.862 18.863)" fill="#74b4a0"/><path d="M.277,5.306,19.336.014a.378.378,0,1,1,.2.727L.479,6.034a.378.378,0,1,1-.2-.728" transform="translate(23.031 33.428)" fill="#74b4a0"/><path d="M10.08,17.112.055.574A.378.378,0,0,1,.7.182L10.727,16.72a.378.378,0,0,1-.646.392" transform="translate(14.023 19.443)" fill="#74b4a0"/><path d="M.367.432,17.253,0a.378.378,0,0,1,.02.755L.387,1.187A.378.378,0,0,1,.367.432" transform="translate(18.119 47.678)" fill="#74b4a0"/><path d="M9.716,11.223.1.632A.378.378,0,1,1,.657.124l9.618,10.592a.378.378,0,0,1-.56.508" transform="translate(10.51 33.537)" fill="#74b4a0"/><path d="M7.875,8.408.111.645A.378.378,0,1,1,.645.111L8.409,7.873a.378.378,0,0,1-.534.535" transform="translate(6.606 45.438)" fill="#74b4a0"/><path d="M.339,1l9.739-1a.378.378,0,1,1,.077.751l-9.739,1A.378.378,0,1,1,.339,1" transform="translate(11.034 58.354)" fill="#74b4a0"/><path d="M8.328,10.478.088.62A.378.378,0,0,1,.668.136l8.24,9.857a.378.378,0,1,1-.58.485" transform="translate(0.95 51.788)" fill="#74b4a0"/></g></g><path d="M0,0H261.5V40.638H0Z" transform="translate(22.915 267.77)" fill="#91e2ff"/><path d="M7.634,877.4H279.369a2.019,2.019,0,0,0,2.006-2.048h0a2.019,2.019,0,0,0-2.006-2.048H7.606A2.019,2.019,0,0,0,5.6,875.348h0A2.061,2.061,0,0,0,7.634,877.4Z" transform="translate(9.889 -609.802)" fill="#74a2ca"/><path d="M301.1,423.3H426.7a7.342,7.342,0,0,0,7.331-7.331V212.731A7.342,7.342,0,0,0,426.7,205.4H301.131a7.342,7.342,0,0,0-7.331,7.331V415.973A7.293,7.293,0,0,0,301.1,423.3Z" transform="translate(-212.19 -159.535)" fill="#2b478b"/><path d="M327.248,432.334H438.774a5.159,5.159,0,0,0,5.148-5.148V249.748a5.159,5.159,0,0,0-5.148-5.148H327.248a5.159,5.159,0,0,0-5.148,5.148V427.153A5.125,5.125,0,0,0,327.248,432.334Z" transform="translate(-231.115 -185.963)" fill="#fff"/><path d="M476.968,220.1h25.87a1.377,1.377,0,0,1,1.368,1.368h0a1.377,1.377,0,0,1-1.368,1.368h-25.87a1.377,1.377,0,0,1-1.368-1.368h0A1.377,1.377,0,0,1,476.968,220.1Z" transform="translate(-341.599 -169.445)" fill="#fff"/><circle cx="2.574" cy="2.574" r="2.574" transform="translate(167.592 49.449)" fill="#fff"/><g transform="translate(263.124 149.639)"><g transform="translate(0 0)"><path d="M120.875,328.031h14.916l6.15,5.621v-5.621a4.668,4.668,0,0,0,4.675-4.675v-10.38a4.668,4.668,0,0,0-4.675-4.675H120.875a4.668,4.668,0,0,0-4.675,4.675v10.38A4.668,4.668,0,0,0,120.875,328.031Z" transform="translate(-116.2 -308.3)" fill="#fff" stroke="#afdadd" stroke-linecap="round" stroke-linejoin="round" stroke-miterlimit="10" stroke-width="1"/><path d="M150.759,330.448H128.774a.986.986,0,0,1-.974-.974h0a.986.986,0,0,1,.974-.974h21.985a.986.986,0,0,1,.974.974h0A.986.986,0,0,1,150.759,330.448Z" transform="translate(-124.544 -322.879)" fill="#c7e9f8"/><path d="M138.82,348.748H128.774a.986.986,0,0,1-.974-.974h0a.986.986,0,0,1,.974-.974H138.82a.986.986,0,0,1,.974.974h0A.968.968,0,0,1,138.82,348.748Z" transform="translate(-124.544 -336.086)" fill="#c7e9f8"/></g><g transform="translate(0 27.217)"><g transform="translate(3.217 17.393)"><g transform="translate(0.106)"><path d="M162.165,486.549a.882.882,0,0,0,.779-.362c.779-1-.056-4.007-.724-6.4a14.42,14.42,0,0,1-.64-2.839c.056-1.586,2.226-4.119,2.254-4.119l-.139-.139c-.083.111-2.254,2.616-2.31,4.258a13.217,13.217,0,0,0,.64,2.894c.612,2.226,1.475,5.287.751,6.234a.79.79,0,0,1-.668.278c-1.085-.028-2.922-3.284-4.842-6.762-2.811-5.037-6.011-10.742-8.961-10.992h-.056c-.028.028-.807.362-.25,2.087l.195-.056c-.445-1.364.028-1.753.111-1.837,2.839.278,6.122,6.15,8.766,10.881,2.143,3.813,3.813,6.818,5.009,6.874Z" transform="translate(-147.8 -468.6)" fill="#606161"/></g><g transform="translate(0 1.197)"><path d="M204.717,472.956l-.111-.056a.516.516,0,0,1-.195.056l-.111.111.111.139.111-.056.083-.028.083-.083.028-.083" transform="translate(-204.3 -472.9)" fill="#4895a2"/><path d="M203.75,474.113a.257.257,0,0,0,.39-.111l-.25-1a.317.317,0,0,1-.39.111Z" transform="translate(-203.5 -472.972)" fill="#11707f"/></g></g><path d="M99.947,601.3s3.339,11.076.807,15.139a19.58,19.58,0,0,0-2.811,8.126s-.39,20.677,0,21.484c.39.779.863,10.492-.167,17.226s-1.224,9.712-1.224,9.712H90.9l-6.512-67.874Z" transform="translate(-64.7 -546.978)" fill="#7eaa9d"/><path d="M184.878,509.342a3.147,3.147,0,0,0-1.141-2.143c-1.085-.863-4.425-6.317-4.842-5.51s-1.558,1.057,0,3.785,2.95,5.093,4.091,5.343Z" transform="translate(-173.953 -475.029)" fill="#c68c89"/><g transform="translate(21.504)"><path d="M98.7,463.732v6.6s5.844-.056,7.263-2.059l-1.085-4.7-.529-2.365Z" transform="translate(-94.446 -445.866)" fill="#c68c89"/><path d="M102.6,463.732v1.531a7.847,7.847,0,0,0,6.178-1.7l-.529-2.365Z" transform="translate(-98.346 -445.866)" fill="#af7574"/><path d="M95.585,416.952s-2.338,6.456-2.421,7.569c-.111,1.113-.918,7.069-.028,7.152,4.369.39,8.07-.835,9.517-3.033l1.252-1.753s1.614,1.169,1.865-.139.39-3.868-1.92-2.616a9.822,9.822,0,0,0-2.727-5.343,31.966,31.966,0,0,0-3.785-2.532C96.253,415.728,95.585,416.952,95.585,416.952Z" transform="translate(-92.722 -413.334)" fill="#c68c89"/><circle cx="3.952" cy="3.952" r="3.952" transform="translate(15.469)" fill="#1d1d1d"/><g transform="translate(1.643 0.007)"><path d="M87.22,411.21a7.722,7.722,0,0,1,6.484,5.928,15.825,15.825,0,0,1,0,4.313s1.224-2.811,1.781-3.061,3.924-1.586,3.924-3.673-2.365-5.844-5.037-5.844-2.421-1.28-6.735-.39C86.19,408.761,85.021,409.012,87.22,411.21Z" transform="translate(-86 -407.6)" fill="#424243"/><path d="M70.308,407.01a13.61,13.61,0,0,1,8.543-.417c2.783.779,10.992,4.146,6.039,13.386,0,0-6.039,8.627-8.376,4.313a7.073,7.073,0,0,1,.223-7.6S76.1,408.735,70.308,407.01Z" transform="translate(-68.671 -406.126)" fill="#424243"/></g></g><g transform="translate(8.254 20.504)"><path d="M98.393,482.289s-4.313-5.649-9.935,0a25.349,25.349,0,0,0-7.792,19.091v16.669l17.755-2.421s-.529-6.178,0-8.349S101.621,488.188,98.393,482.289Z" transform="translate(-70.174 -479.778)" fill="#41c2ea"/><path d="M111.45,486.5s-3.228-2.532-5.343.612c-2.115,3.117-7.764,14.527-7.764,14.527l-11.187-4.647-2.811,2.31s11.3,9.879,15.111,9.573c3.84-.306,11.994-14.61,11.994-14.61S115.179,489.088,111.45,486.5Z" transform="translate(-84.344 -483.934)" fill="#68d5f6"/></g><path d="M101.635,864.087c1.03.64,13.413,0,14.666,0,.724,0,.612-1.725.39-3.2-.167-1.113-.39-2.087-.39-2.087h-5.232a16.893,16.893,0,0,1-6.15,2.95,1.761,1.761,0,0,1-.195.056C101.218,862.668,100.634,863.447,101.635,864.087Z" transform="translate(-84.532 -732.819)" fill="#3d3d3d"/><g transform="translate(0 19.03)"><path d="M180.01,475.931l-4.453-.334c-.39-.028-.557.417-.334.835l6.679,11.493a1.1,1.1,0,0,0,1.057.584l3.673-.557c.223-.028.306-.306.195-.529Z" transform="translate(-175.124 -475.286)" fill="#0689b5"/><path d="M179.8,474.989l-3.98-.5c-.362-.056-.529.39-.334.751l6.707,11.521a1.086,1.086,0,0,0,1.03.612l3.423-.39c.223-.028.278-.278.167-.529l-6.456-11.076A.779.779,0,0,0,179.8,474.989Z" transform="translate(-175.188 -474.483)" fill="#4fbeed"/><path d="M180.781,476.3l-3.618-.417c-.334-.056-.473.195-.278.557l6.345,10.909a1.018,1.018,0,0,0,.946.584l3.006-.362c.195-.028.25-.25.139-.473l-6.039-10.408A.691.691,0,0,0,180.781,476.3Z" transform="translate(-176.09 -475.486)" fill="#fff"/></g><path d="M193.869,510.027s-.417-3.673-1.364-4.592-.5,1.364-.5,1.364S192.756,511.029,193.869,510.027Z" transform="translate(-186.784 -477.634)" fill="#c68c89"/><g transform="translate(19.218 13.72)"><path d="M109.083,463.359h0a8.458,8.458,0,0,1,4.814-1.837c3.2-.25,6.011-5.844,6.039-5.872l-.028-.25c-.028.028-2.894,5.7-6.011,5.955a9.144,9.144,0,0,0-4.369,1.447,2.88,2.88,0,0,0,.362-1.308,12.421,12.421,0,0,1,1.5-4.258v-.223a13.541,13.541,0,0,0-1.67,4.508,2.484,2.484,0,0,1-.724,1.753h0Z" transform="translate(-109 -455.4)" fill="#606161"/></g><path d="M101.8,861.706c2.31,1.92,4.453,1.141,9.267.139a6.194,6.194,0,0,0,2.7-1.058c-.167-1.113-.39-2.087-.39-2.087h-5.232a16.891,16.891,0,0,1-6.15,2.95A1.772,1.772,0,0,1,101.8,861.706Z" transform="translate(-81.608 -732.747)" fill="#c68c89"/></g></g><g transform="translate(30.607 168.309)"><path d="M120.875,328.031h14.916l6.15,5.621v-5.621a4.668,4.668,0,0,0,4.675-4.675v-10.38a4.668,4.668,0,0,0-4.675-4.675H120.875a4.668,4.668,0,0,0-4.675,4.675v10.38A4.668,4.668,0,0,0,120.875,328.031Z" transform="translate(-116.2 -308.3)" fill="#fff" stroke="#afdadd" stroke-linecap="round" stroke-linejoin="round" stroke-miterlimit="10" stroke-width="1"/><path d="M150.759,330.448H128.774a.986.986,0,0,1-.974-.974h0a.986.986,0,0,1,.974-.974h21.985a.986.986,0,0,1,.974.974h0A.986.986,0,0,1,150.759,330.448Z" transform="translate(-124.544 -322.879)" fill="#c7e9f8"/><path d="M138.82,348.748H128.774a.986.986,0,0,1-.974-.974h0a.986.986,0,0,1,.974-.974H138.82a.986.986,0,0,1,.974.974h0A.968.968,0,0,1,138.82,348.748Z" transform="translate(-124.544 -336.086)" fill="#c7e9f8"/></g><g transform="translate(224.708 178.771)"><path d="M137.479,324.61h-12.33l-5.084,4.647V324.61a3.858,3.858,0,0,1-3.865-3.865v-8.581a3.858,3.858,0,0,1,3.865-3.865h17.414a3.858,3.858,0,0,1,3.865,3.865v8.581A3.858,3.858,0,0,1,137.479,324.61Z" transform="translate(-116.2 -308.3)" fill="#fff" stroke="#afdadd" stroke-linecap="round" stroke-linejoin="round" stroke-miterlimit="10" stroke-width="1"/><path d="M146.778,330.11H128.605a.815.815,0,0,1-.805-.805h0a.815.815,0,0,1,.805-.805h18.173a.815.815,0,0,1,.805.805h0A.815.815,0,0,1,146.778,330.11Z" transform="translate(-125.109 -323.853)" fill="#c7e9f8"/><path d="M136.909,348.41h-8.3a.815.815,0,0,1-.805-.805h0a.815.815,0,0,1,.805-.805h8.3a.815.815,0,0,1,.805.805h0A.8.8,0,0,1,136.909,348.41Z" transform="translate(-125.108 -337.944)" fill="#c7e9f8"/></g><path d="M0,15.694V5.147A5.158,5.158,0,0,1,5.148,0H116.674a5.158,5.158,0,0,1,5.148,5.147V15.694Z" transform="translate(90.798 58.638)" fill="#4ad0ff" stroke="rgba(0,0,0,0)" stroke-miterlimit="10" stroke-width="1"/><text transform="translate(149.611 68.104)" fill="#fff" font-size="6" font-family="Roboto-Medium, Roboto" font-weight="500" letter-spacing="-0.021em"><tspan x="-13.818" y="0">ReadToMe</tspan></text><g transform="translate(105.138 94.164)"><g transform="translate(0 0)"><path d="M645.826,239.837v56.439a.266.266,0,0,1-.044.177.342.342,0,0,1-.044.177,2.016,2.016,0,0,1-.044.222c-.044.09-.044.177-.09.266a.043.043,0,0,1-.044.043c-.044.09-.044.134-.089.177a.921.921,0,0,1-.177.266c-.044.089-.133.176-.176.266l-.223.223a.436.436,0,0,1-.223.176c-.044.044-.089.09-.133.09-.044.044-.09.044-.134.089-.089.044-.133.09-.223.134l-.266.133c-.089.044-.133.044-.223.09a.827.827,0,0,1-.31.089h-.133a.269.269,0,0,0-.177.044H555.54a3.123,3.123,0,0,1-2.088-.8l-.223-.223a3.127,3.127,0,0,1-.8-2.087V239.793a3.143,3.143,0,0,1,.71-2l.443-.443a3.528,3.528,0,0,1,1.958-.625h87.177a3.247,3.247,0,0,1,1.465.357,3.208,3.208,0,0,1,1.332,1.331A3.545,3.545,0,0,1,645.826,239.837Z" transform="translate(-552.429 -236.726)" fill="#f0f1f9"/><circle cx="7.686" cy="7.686" r="7.686" transform="translate(44.256 11.865)" fill="#bdbdbd"/><g transform="translate(3.687 19.551)"><path d="M640.74,297.972H590.307l25.238-35.366Z" transform="translate(-554.716 -255.32)" fill="#dcdde5"/><path d="M616.813,298.234H555.985l30.392-42.654Z" transform="translate(-555.985 -255.58)" fill="#bdbdbd"/></g></g><g transform="translate(4.044 78.773)"><rect width="44.855" height="7.981" transform="translate(0 0)" fill="#dcdde5"/><rect width="68.195" height="7.981" transform="translate(0 15.624)" fill="#dcdde5"/><rect width="30.863" height="7.981" transform="translate(54.441 0)" fill="#dcdde5"/><rect width="38.727" height="7.981" transform="translate(0 31.34)" fill="#dcdde5"/><rect width="26.648" height="7.981" transform="translate(47.001 31.34)" fill="#dcdde5"/></g></g><g transform="translate(16.837 194.175)"><g transform="translate(0 2.471)"><g transform="translate(0 0)"><path d="M349.756,390.58s-1.121,4.037-2.159,4.9-4.293,5.124-7.465,5.792-4.423-2.687-.5-5.906a35.415,35.415,0,0,0,5.837-6.637A7.026,7.026,0,0,0,349.756,390.58Z" transform="translate(-332.06 -292.07)" fill="#cfcfcf"/><g transform="translate(5.171 20.532)"><g transform="translate(6.001)"><path d="M327.259,262.661s-7.678,9.165-10.9,10.671a10.093,10.093,0,0,1-3.846.931c-.346.013-1.248-.06-1.3-.061H311.2a55,55,0,0,1-13.968-3.922l.839-2.609a61.541,61.541,0,0,0,7.534,1.015c1.53.108,5.058.269,6.363.481.323-.145.641-.3.952-.472,5.725-3.09,9.5-9.381,9.5-9.381A10.782,10.782,0,0,1,327.259,262.661Z" transform="translate(-297.237 -259.313)" fill="#107298"/></g><g transform="translate(0 3.15)"><g transform="translate(0.055 0.383)"><path d="M353.532,269.937a5.927,5.927,0,0,0-1.851-2.547c-1.067-.565-4.1-2.557-4.753-1.961s-.515,3.457,2.208,5.848a5.443,5.443,0,0,0,3.482,1.459Z" transform="translate(-346.604 -265.319)" fill="#eab287"/></g><g transform="translate(0.078)"><g transform="translate(0 1.527)"><path d="M344.3,268.049l4.484,4.188a.651.651,0,0,0,.681.1l2.748-1.329a.311.311,0,0,0,.165-.169l.006-.022.135-.459-.728-.276-7.054-2.679-.382-.144-.143.485-.011.034a.017.017,0,0,0,0,.012A.278.278,0,0,0,344.3,268.049Z" transform="translate(-344.192 -267.263)" fill="#1d2333"/></g><g transform="translate(0.137)"><g transform="translate(0)"><path d="M349.444,270.807l2.749-1.329a.266.266,0,0,0,.071-.466l-4.484-4.188a.653.653,0,0,0-.679-.1l-2.749,1.329a.266.266,0,0,0-.071.466l4.483,4.188A.654.654,0,0,0,349.444,270.807Z" transform="translate(-344.173 -264.668)" fill="#2d3e50"/></g></g><g transform="translate(0.804 0.514)" opacity="0.2"><path d="M349.856,270.764l2.15-1a.277.277,0,0,0,.055-.487l-3.7-3.553a.683.683,0,0,0-.7-.133l-2.149,1a.276.276,0,0,0-.055.486l3.7,3.553A.681.681,0,0,0,349.856,270.764Z" transform="translate(-345.331 -265.541)" fill="#fff"/></g></g><g transform="translate(4.5 1.437)"><path d="M348.526,267.125s-.639.1-.7.649.529.331.911.21a.931.931,0,0,1,.779.062C349.679,268.243,349.651,266.963,348.526,267.125Z" transform="translate(-347.818 -267.111)" fill="#eab287"/></g><g transform="translate(0 1.685)"><path d="M356.828,270.28a25.1,25.1,0,0,0-1.77-2.547c-.512-.6-.773.27-.422.876S355.676,270.451,356.828,270.28Z" transform="translate(-354.475 -267.532)" fill="#eab287"/></g></g></g><g transform="translate(0 39.245)"><g transform="translate(8.493)"><g transform="translate(0)"><path d="M324.891,308.517s-10.38-19.4-17.039-17.222c-4.44,1.452-15.144,22.894-15.144,22.894.978,1.406,3.1,1.373,4.785.247,0,0,7.946-6.644,10.764-14.17,0,0,8.442,19.59,19.658,19.59C328.644,319.856,326.719,310.47,324.891,308.517Z" transform="translate(-292.707 -291.125)" fill="#666"/></g></g><path d="M357.495,330.581a2.149,2.149,0,0,1,.28,1.188c0,.8-.072,3.563-.072,3.563l-13.486.023a4.007,4.007,0,0,1,1.654-3.224c1.707-1.124,4.334-.03,6.84-1.8C352.709,330.334,353.382,330.947,357.495,330.581Z" transform="translate(-344.216 -307.269)" fill="#cfcfcf"/></g><g transform="translate(35.128 14.386)"><g transform="translate(5.286)"><path d="M280.689,248.866s4.838.024,7.044,2.018.1,6.046-2.292,6.565-9.864-.367-10.64-1.647S274.516,248.964,280.689,248.866Z" transform="translate(-274.519 -248.866)" fill="#31addc"/></g><g transform="translate(0 4.562)"><path d="M290.191,295.482l2.352-15.167-.51-20.922-5.627-1.9-.3-.1-1.263-.427-1-.339-5.941.819-.966.132-.341.047-4.25.585c-.04,13.447,1.251,16.352-1.235,27.29C271.73,290.835,274.442,304.231,290.191,295.482Z" transform="translate(-271.104 -256.621)" fill="#31addc"/></g><g transform="translate(10.829 4.641)"><g transform="translate(0)"><path d="M280.044,260.756a5.34,5.34,0,0,0,5.254-3.8.157.157,0,1,0-.3-.076,4.946,4.946,0,0,1-4.95,3.567h-.066a.163.163,0,0,0-.158.156.157.157,0,0,0,.156.158Z" transform="translate(-279.82 -256.756)" fill="#107298"/></g></g><g transform="translate(5.13 5.888)"><g transform="translate(0)"><path d="M297.216,261.042a.157.157,0,0,0,0-.315c-.056,0-1.294-.051-1.614-1.724a.157.157,0,1,0-.308.059,2.153,2.153,0,0,0,1.917,1.979Z" transform="translate(-295.293 -258.875)" fill="#107298"/></g></g><g transform="translate(1.119 28.348)"><path d="M296.394,297.989s.692,5.278-.717,7.861c0,0-7,.49-12.091-1.511a26.205,26.205,0,0,0,1.291-7.281Z" transform="translate(-283.586 -297.057)" fill="#107298"/></g><g transform="translate(9.976 9.452)"><path d="M288.255,279.176h.014a.157.157,0,0,0,.142-.171c-.352-3.913,1.114-13.792,1.129-13.891a.157.157,0,1,0-.311-.046c-.015.1-1.487,10.016-1.131,13.966A.157.157,0,0,0,288.255,279.176Z" transform="translate(-288.043 -264.933)" fill="#fff"/></g><g transform="translate(4.799 8.607)"><path d="M296.97,277.818h.014a.157.157,0,0,0,.142-.171c-.352-3.912,1.163-13.869,1.179-13.969a.157.157,0,1,0-.311-.048c-.015.1-1.537,10.094-1.181,14.044A.156.156,0,0,0,296.97,277.818Z" transform="translate(-296.76 -263.497)" fill="#fff"/></g></g><g transform="translate(30.833)"><g transform="translate(2.394 5.508)"><g transform="translate(0)"><path d="M306.543,233.774s-1.188,1.329.01,3.77S308.82,240,308.82,240,308.818,233.89,306.543,233.774Z" transform="translate(-306.018 -233.774)" fill="#1d2333"/></g></g><g transform="translate(11.77 13.745)"><g transform="translate(0)"><path d="M283.966,250.3l1.142,3.177.524,1.456c2.271.823,4.733-1.973,4.733-1.973l-1.242-5.139c-1.034-.324-2.968,1.074-4.192,1.841C284.354,250.026,283.966,250.3,283.966,250.3Z" transform="translate(-283.966 -247.776)" fill="#eab287"/></g></g><g transform="translate(11.77 14.721)"><g transform="translate(0)"><path d="M287.862,250.986l1.426,3.965c2.565-1.2,2.681-5.516,2.681-5.516l-3.142.913C288.25,250.709,287.862,250.986,287.862,250.986Z" transform="translate(-287.862 -249.435)" fill="#de9367"/></g></g><g transform="translate(2.948 1.697)"><g transform="translate(0)"><path d="M285.049,235.389c.031.112.062.224.1.338.3,1,.694,2.089,1.125,3.169q.137.34.276.676c.081.193.161.386.242.578.17.4.341.788.509,1.167.116.263.232.52.346.769a4.181,4.181,0,0,0,.272.5,4,4,0,0,0,5.136,1.428c1.072-.529,2.248-1.141,3.33-1.775.054-.031.106-.061.159-.093a19.781,19.781,0,0,0,2.291-1.542c.058-.156.112-.315.161-.474a11.7,11.7,0,0,0,.418-4.3c-.041-.581-.112-1.161-.206-1.737a1.246,1.246,0,0,1-.012-.137c-.751-2.825-1.647-5.552-1.647-5.552-4.109-3.022-12.33.758-12.9,3.915A7.734,7.734,0,0,0,285.049,235.389Z" transform="translate(-284.606 -227.295)" fill="#eab287"/></g></g><g transform="translate(16.226 10.23)"><g transform="translate(0)"><path d="M285.716,246.1a11.691,11.691,0,0,0,.418-4.3,4.3,4.3,0,0,0-1.527.89A13.841,13.841,0,0,0,285.716,246.1Z" transform="translate(-284.607 -241.801)" fill="#1d2333"/></g></g><g transform="translate(2.146)"><path d="M300.656,231.595a1.9,1.9,0,0,0-2.349,1.375l-.9.239a8.921,8.921,0,0,0-1.143-2.755c-.7-.889-2.424-.406-3-1.523,0,0-3.812,3.448-6.859,2.38-3.41-1.195,4.616-7.8,9.529-6.8C299.79,225.295,300.476,228.267,300.656,231.595Z" transform="translate(-285.588 -224.41)" fill="#1d2333"/></g><g transform="translate(14.865 7.052)"><g transform="translate(0)"><path d="M283.8,237.907s.938-2.038,2.349-1.375c1.557.731,1.54,4.611-1.07,5.214Z" transform="translate(-283.796 -236.399)" fill="#eab287"/></g></g><g transform="translate(0 1.179)"><path d="M309.926,226.414a10.293,10.293,0,0,1-5.027.734c-2.715-.4-2.777,4.692.419,4.818S309.926,226.414,309.926,226.414Z" transform="translate(-302.89 -226.414)" fill="#1d2333"/></g></g><g transform="translate(13.409 57.553)"><g transform="translate(0)"><path d="M300.059,325.03s-12.332,4.085-17.39,8.933-9.129,27.395-9.129,27.395c.689,1.568,2.24,2.028,4.288,1.847,0,0,6.974-12.6,9.879-22.716,0,0,33.468-6.217,26.639-17.986C313.763,321.5,304.8,323.7,300.059,325.03Z" transform="translate(-273.541 -322.247)" fill="#666"/></g></g><g transform="translate(55.189 21.719)"><path d="M250.132,331.385s-1.744,2.364-1.6,3.587,1.722,3.528,2.984,3.639-1.45-2.961-.81-2.862c.775.12,6,4.41,7.106,4.41s-1.3-1.994-2.234-2.5a17.411,17.411,0,0,1,3.05,1.682c.575.576.994-.659-1.885-2.41,0,0,2.64,1.5,2.82,1.522.587.078-1.088-1.886-2.531-2.6,0,0,2.116,1.03,2.331,1.035.3.006-.341-.686-1.911-1.556-1.414-.784-3.728-4.38-3.728-4.38Z" transform="translate(-245.024 -290)" fill="#eab287"/><path d="M259.523,261.332s5.867,11.27,7.2,23.058l.629,17.9s-.6,1.276-3.593.428l-2.09-16.616-2.278-9.273S257.648,266.553,259.523,261.332Z" transform="translate(-258.655 -261.332)" fill="#107298"/></g></g><g transform="translate(37.604 0.297)"><ellipse cx="2.49" cy="3.277" rx="2.49" ry="3.277" transform="translate(6.965 6.151)" fill="#606060"/><ellipse cx="2.49" cy="3.277" rx="2.49" ry="3.277" transform="translate(8.093 6.151)" fill="#6e93fe"/><path d="M295.736,231.088s-1.727-5.547-9.262-6.173l-1.6.726s8.085,2.128,8.886,6.483C295.811,231.6,295.736,231.088,295.736,231.088Z" transform="translate(-284.872 -224.915)" fill="#6e93fe"/></g></g><g transform="translate(167.451 0)"><g transform="translate(0 0.856)"><g transform="translate(10.454 25.078)"><path d="M154.948,104.774,156.1,71.292a49.8,49.8,0,0,0-6.653-1.189c-.238-.025-.477-.049-.721-.071a28.373,28.373,0,0,0-7.161.13l-.347.058-7.365,1.254.781,33.3Z" transform="translate(-133.852 -69.868)" fill="#59ebab"/></g><g transform="translate(12.542)"><g transform="translate(6.256 20.296)"><path d="M152.393,62.427v5.019c-.092.04-.183.079-.274.114a6.492,6.492,0,0,1-5.282-.114V62.427Z" transform="translate(-146.837 -62.427)" fill="#eab287"/><path d="M152.393,64.32v3.8c-.092.04-.183.079-.274.114a12.524,12.524,0,0,1-5.282-2.1V64.32Z" transform="translate(-146.837 -63.104)" fill="#de9367"/></g><path d="M139.9,48.7a3.156,3.156,0,0,0-1.834-1.727c-1.223-.287-1.187,2.769-.432,5A1.91,1.91,0,0,0,140.3,53.34Z" transform="translate(-137.101 -36.601)" fill="#de9367"/><path d="M160.61,48.7a3.158,3.158,0,0,1,1.835-1.727c1.223-.287,1.187,2.769.431,5a1.909,1.909,0,0,1-2.661,1.367Z" transform="translate(-145.362 -36.601)" fill="#de9367"/><path d="M147.389,57.334h0c-3.709,0-6.716-3.984-6.716-7.493V41.9h13.433V49.84C154.106,53.35,151.1,57.334,147.389,57.334Z" transform="translate(-138.378 -34.796)" fill="#eab287"/><path d="M139.97,43.723s-2.3-3.453-.7-5.772a4.645,4.645,0,0,1,0-3.869c.98-1.889,5.121-4.061,10.894-2.928s4.681,5.395,3.959,6.581a6.061,6.061,0,0,1-.722,5.988s-1.265-1.726-.875-5.395c0,0-6.425,1.834-11.658-.378C140.87,37.951,141.589,42.213,139.97,43.723Z" transform="translate(-137.675 -30.842)" fill="#1d2333"/></g><g transform="translate(2.097 26.678)"><path d="M129.8,72.358s-5.273,7.49-7.279,13.825c0,0,2.744,3.255,4.592,3.951l3.363-8.888S132.12,76.06,129.8,72.358Z" transform="translate(-121.447 -72.358)" fill="#78fec4"/><path d="M126.517,97.823S129,102,133.7,109.282l-2.613,1.88-8.63-9.653a4.478,4.478,0,0,1-1.491-4.364l.963-3.273S125.408,95.175,126.517,97.823Z" transform="translate(-120.847 -80.047)" fill="#eab287"/></g><g transform="translate(28.208 26.501)"><path d="M167.782,72.082s5.272,7.489,7.279,13.824c0,0-2.744,3.256-4.592,3.951l-3.376-8.71S165.464,75.784,167.782,72.082Z" transform="translate(-163.288 -72.082)" fill="#78fec4"/><path d="M168.661,97.546s-2.487,4.183-7.18,11.46l2.613,1.88,8.631-9.653a4.478,4.478,0,0,0,1.491-4.364l-.963-3.273S169.77,94.9,168.661,97.546Z" transform="translate(-161.481 -79.771)" fill="#eab287"/></g><path d="M151.15,129.952a8.744,8.744,0,0,1,.208-2.444c.524-2.868,2.207-8.7,7.155-8.019,6.53.905,4.481,13.319,4.481,13.319l-3.843,30.516a18.871,18.871,0,0,1-4.712,0S152.743,145.587,151.15,129.952Z" transform="translate(-129.572 -62.505)" fill="#4585b3"/><path d="M120.63,119.3s6.112,9.09,12.884,12.639c7.239,3.793,10.486-3.252,10.486-3.252S127.884,117.257,120.63,119.3Z" transform="translate(-118.672 -62.37)" fill="#4585b3"/><path d="M155.68,114.387s.433,5.774-1.342,7.437-12.588,1.742-16.219.634-2.987-8.364-2.987-8.364Z" transform="translate(-123.84 -60.597)" fill="#4585b3"/><g transform="translate(6.53 39.397)"><path d="M155.057,107.871H130.08l-2.306-13.485a1.912,1.912,0,0,1,1.885-2.234h25.795a1.912,1.912,0,0,1,1.885,2.234Z" transform="translate(-127.746 -92.151)" fill="#666"/><path d="M0,0H24.977a0,0,0,0,1,0,0V0A1.647,1.647,0,0,1,23.33,1.647H1.647A1.647,1.647,0,0,1,0,0V0A0,0,0,0,1,0,0Z" transform="translate(2.334 15.719)" fill="#464646"/></g><g transform="translate(0 48.656)"><g transform="translate(36.356 15.347)"><path d="M183.793,137.019a3.5,3.5,0,0,1-4.572.321c-.677-.413-1.686-.966-2.626-1.468-1.281-.684-2.434-1.27-2.434-1.27l1.479-3.381s.909.025,2.2-.006h0c1.073-.026,2.41-.091,3.7-.242,2.833-.334,4.152-1.035,4.5.065S185.108,135.723,183.793,137.019Z" transform="translate(-174.161 -130.443)" fill="#2d3e50"/></g><path d="M128.286,107.894s-4.9-2.951-9.044-.075.24,8.3,4.769,10.134,31.255,9.24,31.255,9.24a24.032,24.032,0,0,0,1.261-4.586s-7.956-4.512-12.426-7.39C133.92,108.663,128.286,107.894,128.286,107.894Z" transform="translate(-117.583 -106.56)" fill="#4585b3"/></g><path d="M160.781,187.736a74.6,74.6,0,0,1,4.427,7.916c1.676,3.668.042,4.791-2.369,4.629-4.013-.27-7.156-9.745-7.156-9.745l.375-2.8S156.962,187.832,160.781,187.736Z" transform="translate(-131.2 -86.917)" fill="#2d3e50"/></g><g transform="translate(11.622 0)"><g transform="translate(0 10.945)"><g transform="translate(0 0)"><path d="M137.283,53.913a1.105,1.105,0,0,1-.328-.013,1.146,1.146,0,0,1-.945-1l-.334-3.046a1.114,1.114,0,0,1,.122-.649,1.055,1.055,0,0,1,.411-.443.6.6,0,0,1,.167-.09,1.036,1.036,0,0,1,.315-.084.862.862,0,0,1,.129-.006,1.147,1.147,0,0,1,1.137,1.022l.334,3.046A1.143,1.143,0,0,1,137.283,53.913Z" transform="translate(-135.669 -47.27)" fill="#dc4131"/><rect width="2.296" height="7.57" rx="1.148" transform="translate(0.583 0.251) rotate(-6.289)" fill="#606060"/></g><path d="M136.339,49.3h-.469a1.055,1.055,0,0,1,.411-.443C136.313,49.143,136.339,49.3,136.339,49.3Z" transform="translate(-135.741 -47.37)" fill="#dc4131"/></g><g transform="translate(0.003)"><g transform="translate(16.21 10.945)"><path d="M165.171,49.852l-.334,3.046a1.147,1.147,0,0,1-.938,1,1.114,1.114,0,0,1-.328.013,1.148,1.148,0,0,1-1.015-1.266l.334-3.046a1.148,1.148,0,0,1,1.144-1.022.906.906,0,0,1,.129.006,1.036,1.036,0,0,1,.315.084.692.692,0,0,1,.167.09,1.04,1.04,0,0,1,.4.443A1.114,1.114,0,0,1,165.171,49.852Z" transform="translate(-161.489 -47.27)" fill="#dc4131"/><rect width="2.296" height="7.57" rx="1.148" transform="translate(2.282 7.776) rotate(-173.711)" fill="#606060"/></g><path d="M155.45,42.387h-.006a1.04,1.04,0,0,0-.4-.443c.225-2.095.572-10.885-9.414-11.046-9.986.161-9.639,8.951-9.414,11.046a1.055,1.055,0,0,0-.411.443c-1.259-10.963,7.248-12.608,9.542-12.852.109-.006.206-.019.283-.026s.174.019.283.026C148.2,29.78,156.71,31.425,155.45,42.387Z" transform="translate(-135.673 -29.51)" fill="#dc4131"/><path d="M166.183,49.3h-.463s.026-.161.058-.443A1.04,1.04,0,0,1,166.183,49.3Z" transform="translate(-146.412 -36.426)" fill="#dc4131"/></g></g></g><g transform="translate(92.954 0.842)"><path d="M551.427,181.122s-1.122,4.168-4.329,5.771-1.282,2-.721,2.085,9.219-3.527,9.219-3.527l-.481-4.329Z" transform="translate(-537.345 -86.616)" fill="#b8b8b8"/><path d="M556.7,225.541s.452,3.621-.091,4.667-1.733,5.558-4.058,7.158-4.457-.676-2.383-4.579a30.853,30.853,0,0,0,2.466-7.293A6.12,6.12,0,0,0,556.7,225.541Z" transform="translate(-536.843 -130.227)" fill="#b8b8b8"/><path d="M575.535,143.143s2.129,12.462-3.474,14.5-15.242,2.5-15.242,2.5,2.7,20.544.69,24.722c-2.6.224-2.587,0-2.587,0s-4.593-19.952-4.14-24.722S561.613,144.977,575.535,143.143Z" transform="translate(-541.312 -89.399)" fill="#ef9b84"/><path d="M586.946,145.712s2.245,13.137-3.662,15.282-16.068,2.632-16.068,2.632,1.222,6.827-1.285,23.617c-5.26-1.176-4.427-.668-4.427-.668s-3-24.559-.862-27.633S572.271,147.646,586.946,145.712Z" transform="translate(-545.936 -90.652)" fill="#f8a58f"/><g transform="translate(0 0)"><g transform="translate(0 0)"><g transform="translate(14.166 7.611)"><path d="M577.73,67.445c1.074-1.8,2.845-3.757,2.075-5.861l-.088-.242c-2.118-5.869-7.154-9.881-12.5-7.583-4.53,1.947-5.563,5.218-5.388,7.68a10.736,10.736,0,0,0,1.284,3.807q.675,1.086,1.313,2.1a9.057,9.057,0,0,0,5.518,3.969A31.393,31.393,0,0,0,577.73,67.445Z" transform="translate(-561.81 -53.102)" fill="#1d2333"/></g><circle cx="5.42" cy="5.42" r="5.42" transform="translate(19.126 4.175) rotate(-22.654)" fill="#1d2333"/><g transform="translate(2.538 27.661)"><path d="M539.114,100.929s5.421,6.643,17.427,8.08l0,0v0c1.9-2.121,4.015-7.095,5.423-11.227a4.13,4.13,0,0,0,.105-3.4,4.334,4.334,0,0,0-2.174-2.089c-.215-.095-.422-.1-.614.3-.435.9-.868,1.966-1.363,3.006-1.5,3.151-2.678,6.063-3.4,7.948h0a27.391,27.391,0,0,0-6.963-1.694,15.968,15.968,0,0,1-7.24-3.046Z" transform="translate(-539.114 -92.234)" fill="#e1d064"/></g><g transform="translate(22.868 24.873)"><path d="M581.254,106.382a10.968,10.968,0,0,0-.262-3.761c-.013-.114-.027-.231-.042-.345-.038-.066-.074-.131-.109-.2a10.876,10.876,0,0,1-1.205-2.62c-.7-2.611-.174-4.269.014-5.912-.152-.758-.686-3.321-.856-4.076l3.348-1.291.7-.269.042-.016v0l.713-.275.055-.02a12.022,12.022,0,0,1,5.066-.785c.114.007.224.014.338.026l1.28.114.049,0,.821.073,4.756.423,1.4,18.927Z" transform="translate(-578.795 -86.793)" fill="#f2e278"/><g transform="translate(3.347 0)"><path d="M594.389,87.032c-1.553,3.129-5.355,6.626-7.3,5.547-1.2-.662-1.688-2.838-1.758-4.4l.7-.268.043-.016v0l.713-.275.054-.021a12.036,12.036,0,0,1,5.067-.784l.176.024.16.019,1.281.1.049,0Z" transform="translate(-585.328 -86.793)" fill="#f2e278"/></g><g transform="translate(2.046 14.35)"><path d="M582.9,115.933c.014.115.03.231.043.345a18.315,18.315,0,0,0,7.816-.514q.855-.2,1.8-.486a.244.244,0,1,0-.139-.468c-6.349,1.886-9.591.94-9.623.93l-.009,0Z" transform="translate(-582.789 -114.8)" fill="#f2e278"/></g></g><g transform="translate(15.115 11.502)"><g transform="translate(10.985 9.178)"><path d="M585.1,81.939l.774,1.238.875,1.4.755,1.209a3.119,3.119,0,0,0,2.444-.93,7.662,7.662,0,0,0,1.434-1.769l-1.9-3.8-.338-.675a2.6,2.6,0,0,0-1.681.914c-.577.532-1.147,1.189-1.62,1.649C585.4,81.613,585.1,81.939,585.1,81.939Z" transform="translate(-585.103 -78.609)" fill="#eab287"/></g><g transform="translate(10.986 10.31)"><path d="M585.1,83.016l1.649,2.639c1.607-1.438,1.747-4.837,1.747-4.837l-2.651,1.435C585.4,82.691,585.1,83.016,585.1,83.016Z" transform="translate(-585.104 -80.818)" fill="#de9367"/></g><g transform="translate(0.002)"><path d="M579.873,69.036s-.078.172-.23.461c-.141.266-.346.633-.611,1.054h0a16.291,16.291,0,0,1-1.256,1.732l0,0a11.4,11.4,0,0,1-2.35,2.155,6.96,6.96,0,0,1-3.327,1.212c-3.17.253-5.729-4.212-7.166-7.469-.041-.092-.079-.182-.118-.272-.507-1.175-.858-2.162-1.03-2.668-.078-.233-.118-.365-.118-.365l8.363-3.455,1.765-.73a4.328,4.328,0,0,1,2.884,1.982c.065.085.131.172.195.26.033.045.065.09.1.135q.142.2.281.412c.051.078.1.157.152.237.15.238.295.482.434.728a26.948,26.948,0,0,1,1.364,2.821C579.63,68.3,579.873,69.036,579.873,69.036Z" transform="translate(-563.665 -60.695)" fill="#eab287"/></g><g transform="translate(12.593 2.663)"><path d="M588.241,67.613s.344-2.12,1.9-1.654c1.709.513,2.592,4.382,0,5.4Z" transform="translate(-588.241 -65.892)" fill="#eab287"/><ellipse cx="0.964" cy="0.643" rx="0.964" ry="0.643" transform="translate(0.385 2.536)"/></g><path d="M576.22,65.689a11.163,11.163,0,0,1,.255,3.669,28.211,28.211,0,0,0-2.088-3.892l-.015-.023a.156.156,0,0,1-.013-.018,8.785,8.785,0,0,1-.819-1.518c-6.961,2.73-9.3,2.411-9.759,1.337-.078-.233-.119-.364-.119-.364l10.129-4.186c1.286.064,2.476,1.294,3.455,2.789C576.347,63.917,576.28,65.005,576.22,65.689Z" transform="translate(-563.662 -60.695)" fill="#1d2333"/></g><g transform="translate(17.943 25.535)"><path d="M569.182,100.143s5.957,4.966,17.963,6.4l0,0h0c1.9-2.121,4.015-7.1,5.423-11.227a7.591,7.591,0,0,0-1.3-7.229,5.818,5.818,0,0,0-1.385,2.039c-.436.9-.868,1.967-1.362,3.006-1.5,3.151-2.678,6.063-3.4,7.948h0a27.422,27.422,0,0,0-6.964-1.694,43.491,43.491,0,0,1-7.834-1.744Z" transform="translate(-569.182 -88.085)" fill="#e1d064"/></g><path d="M563.766,104.295s-3.2-2.77-4.919-2.548a3.711,3.711,0,0,0-3.107,3c-.111,1.221,1.459,1.067,2.776.769s4.109,1.285,4.109,1.285A4.906,4.906,0,0,0,563.766,104.295Z" transform="translate(-544.681 -69.206)" fill="#eab287"/><g transform="translate(0 27.326)"><path d="M534.268,93.546l6.168,15.111a1.426,1.426,0,0,0,1.321.888h9.219a1.426,1.426,0,0,0,1.321-1.965l-6.166-15.111a1.426,1.426,0,0,0-1.321-.887h-9.219A1.427,1.427,0,0,0,534.268,93.546Z" transform="translate(-534.161 -91.581)" fill="#464646"/><path d="M534.275,93.546l6.073,15.111a1.526,1.526,0,0,0,1.411.888h8.522a1.437,1.437,0,0,0,1.411-1.965l-6.584-15.111a1.526,1.526,0,0,0-1.411-.887h-8.009A1.44,1.44,0,0,0,534.275,93.546Z" transform="translate(-534.161 -91.581)" fill="#666"/><path d="M546.115,108.661a2.439,2.439,0,0,0,2.08,1.5c.83,0,1.244-.673.926-1.5a2.439,2.439,0,0,0-2.08-1.5C546.211,107.158,545.8,107.831,546.115,108.661Z" transform="translate(-539.938 -99.177)" fill="#999" opacity="0.5"/><path d="M537.151,105.084s-.691-1.548.043-1.962l.624,1.528s1.356-1.225,2.3-.628,2.458,3.852,1.984,4.725-3.1,1.642-4.041.554A5.238,5.238,0,0,1,537.151,105.084Z" transform="translate(-535.476 -97.209)" fill="#eab287"/></g><g transform="translate(24.11 17.946)"><path d="M581.234,91.642a8.129,8.129,0,0,1,1.572-5.54c5.359-7.228,3.444-12.686,3.423-12.741l.24-.089c.02.055,1.983,5.644-3.464,12.989a8.026,8.026,0,0,0-1.516,5.366Z" transform="translate(-581.219 -73.273)"/></g><g transform="translate(21.779 26.165)"><path d="M578.668,99.565c-1.4-2.066-1.976-9.9-2-10.233l.255-.018c.006.08.593,8.1,1.956,10.107Z" transform="translate(-576.669 -89.314)"/></g><g transform="translate(7.582 24.915)"><path d="M563.874,104.557c-2.574,0-6.086-6.189-8.911-11.168-1.826-3.218-3.551-6.257-4.288-6.257h-.005a1.469,1.469,0,0,0-1.289.521,1.739,1.739,0,0,0-.007,1.406l-.235.1a1.968,1.968,0,0,1,.027-1.646,1.7,1.7,0,0,1,1.5-.638h.009c.846,0,2.2,2.311,4.512,6.388,2.792,4.92,6.263,11.038,8.686,11.038h.036c.629-.016,1.15-.455,1.594-1.34l.229.115c-.484.964-1.094,1.463-1.816,1.482Z" transform="translate(-548.96 -86.875)"/></g></g><path d="M597.754,125.027c.186,2.522.843,11.747.843,11.747-9.377,2.905-18.986-.966-18.986-.966a43.384,43.384,0,0,0,2.041-10.781Z" transform="translate(-556.325 -80.565)" fill="#f2e278"/></g></g></g></g></g></svg>